<svg xmlns="http://www.w3.org/2000/svg" viewBox="0 0 450 310" fill="none">
    <defs>
        <filter id="shadow" x="7" y="10" width="436" height="294" filterUnits="userSpaceOnUse">
            <feDropShadow dx="0" dy="1" stdDeviation="1" flood-color="#233850" flood-opacity="0.16"/>
        </filter>
    </defs>
    <rect x="11.5" y="12.5" width="428" height="287" rx="10" fill="white" stroke="#c3d0de" filter="url(#shadow)"/>
    <rect x="32.5" y="33.5" width="386" height="113" rx="8" fill="#dff1fc" stroke="#409eff"/>
    <g stroke="#0082d9" stroke-width="1.7" stroke-linecap="round" stroke-linejoin="round">
        <path d="M57.5 58H65L69.5 62.5V73A1.5 1.5 0 0 1 68 74.5H57.5A1.5 1.5 0 0 1 56 73V59.5A1.5 1.5 0 0 1 57.5 58Z"/>
        <path d="M64.5 58V63H69.5M59.5 63H61M59.5 66.5H66M59.5 70H66"/>
    </g>
    <g font-family="Arial, Helvetica, sans-serif">
        <text x="85" y="75" fill="#007dce" font-size="20">SECCI</text>
        <text x="85" y="100" fill="#526b88" font-size="12">
            <tspan x="85">We will email this document automatically when a CCD2-</tspan>
            <tspan x="85" dy="20">applicable payment method is selected.</tspan>
        </text>
    </g>
    <rect x="32" y="159" width="387" height="120" rx="8" fill="#f1f6fa"/>
    <circle cx="58" cy="191" r="9.5" stroke="#7e94aa"/>
    <path d="M85 191H359" stroke="#aebac4" stroke-width="10" stroke-linecap="round"/>
    <circle cx="58" cy="247" r="9.5" stroke="#7e94aa"/>
    <path d="M85 247H312" stroke="#aebac4" stroke-width="10" stroke-linecap="round"/>
</svg>
